# xmcd CD database file
#
# Track frame offsets:
#	150
#	32147
#	49077
#	76555
#	98550
#	113542
#	143530
#	173935
#	190057
#	213892
#	238907
#
# Disc length: 3471 seconds
#
# Revision: 0
# Processed by: cddbd v1.5.2PL0 Copyright (c) Steve Scherf et al.
# Submitted via: CDex 1.51
#
DISCID=810d8d0b
DTITLE=Joyce Mere - Another Shot Of Yesterday
DYEAR=1998
DGENRE=Country
TTITLE0=Another Shot Of Yesterday
TTITLE1=Gonna Make Love To You
TTITLE2=Walkin' In The Street
TTITLE3=Nothing Lasts Forever
TTITLE4=Are You For Real
TTITLE5=Never Really Mine
TTITLE6=In Your Pocket
TTITLE7=Wanna Be Your Girl
TTITLE8=Never Liked To Be Alone
TTITLE9=Wild Woman
TTITLE10=Flashback
EXTD=YEAR: 1998
EXTT0=
EXTT1=
EXTT2=
EXTT3=
EXTT4=
EXTT5=
EXTT6=
EXTT7=
EXTT8=
EXTT9=
EXTT10=
PLAYORDER=
